<svg id="visual" viewBox="0 0 900 600" width="900" height="600" xmlns="http://www.w3.org/2000/svg" xmlns:xlink="http://www.w3.org/1999/xlink" version="1.1"><rect x="0" y="0" width="900" height="600" fill="#ffffff"></rect><defs><linearGradient id="grad1_0" x1="33.3%" y1="100%" x2="100%" y2="0%"><stop offset="20%" stop-color="#ffffff" stop-opacity="1"></stop><stop offset="80%" stop-color="#ffffff" stop-opacity="1"></stop></linearGradient></defs><defs><linearGradient id="grad2_0" x1="0%" y1="100%" x2="66.7%" y2="0%"><stop offset="20%" stop-color="#ffffff" stop-opacity="1"></stop><stop offset="80%" stop-color="#ffffff" stop-opacity="1"></stop></linearGradient></defs><g transform="translate(900, 600)"><path d="M-216.3 0C-200.5 -18 -184.6 -35.9 -180.7 -58.7C-176.8 -81.5 -184.8 -109.1 -175 -127.2C-165.3 -145.2 -137.8 -153.6 -115.2 -158.6C-92.6 -163.5 -74.9 -165 -56.6 -174C-38.2 -183.1 -19.1 -199.7 0 -216.3L0 0Z" fill="#0065d8"></path></g><g transform="translate(0, 0)"><path d="M216.3 0C203.4 19.5 190.6 39 184.5 59.9C178.5 80.9 179.2 103.2 171.5 124.6C163.8 146 147.6 166.4 127.2 175C106.7 183.7 82.1 180.5 60.3 185.5C38.4 190.4 19.2 203.4 0 216.3L0 0Z" fill="#0065d8"></path></g></svg>