<svg id="visual" viewBox="0 0 960 540" width="960" height="540" xmlns="http://www.w3.org/2000/svg" xmlns:xlink="http://www.w3.org/1999/xlink" version="1.1"><path d="M0 50L16 54.3C32 58.7 64 67.3 96 70.8C128 74.3 160 72.7 192 73C224 73.3 256 75.7 288 80.8C320 86 352 94 384 90.8C416 87.7 448 73.3 480 68.5C512 63.7 544 68.3 576 73.7C608 79 640 85 672 85.3C704 85.7 736 80.3 768 77.7C800 75 832 75 864 69.2C896 63.3 928 51.7 944 45.8L960 40L960 0L944 0C928 0 896 0 864 0C832 0 800 0 768 0C736 0 704 0 672 0C640 0 608 0 576 0C544 0 512 0 480 0C448 0 416 0 384 0C352 0 320 0 288 0C256 0 224 0 192 0C160 0 128 0 96 0C64 0 32 0 16 0L0 0Z" fill="#002233" stroke-linecap="round" stroke-linejoin="miter"></path></svg>